<svg id="Layer_1" data-name="Layer 1" xmlns="http://www.w3.org/2000/svg" viewBox="0 0 995 813"><defs><style>.cls-1,.cls-49{fill:#fff;}.cls-2{font-size:12px;font-family:MyriadPro-Regular, Myriad Pro;}.cls-3{letter-spacing:-0.01em;}.cls-4{letter-spacing:0em;}.cls-5{letter-spacing:0em;}.cls-6{letter-spacing:0.01em;}.cls-7{letter-spacing:-0.01em;}.cls-8{letter-spacing:0em;}.cls-9{letter-spacing:-0.01em;}.cls-10{letter-spacing:-0.01em;}.cls-11{letter-spacing:-0.01em;}.cls-12{letter-spacing:0em;}.cls-13{letter-spacing:-0.01em;}.cls-14{letter-spacing:-0.01em;}.cls-15{letter-spacing:0em;}.cls-16{letter-spacing:-0.05em;}.cls-17{letter-spacing:0em;}.cls-18{letter-spacing:0.01em;}.cls-19{letter-spacing:0.01em;}.cls-20{letter-spacing:0em;}.cls-21{letter-spacing:0.02em;}.cls-22{letter-spacing:-0.01em;}.cls-23{letter-spacing:0em;}.cls-24{letter-spacing:0.01em;}.cls-25{letter-spacing:-0.01em;}.cls-26{letter-spacing:-0.01em;}.cls-27{letter-spacing:0em;}.cls-28{letter-spacing:-0.01em;}.cls-29{letter-spacing:-0.01em;}.cls-30{letter-spacing:0.01em;}.cls-31{letter-spacing:-0.01em;}.cls-32{letter-spacing:0.01em;}.cls-33{letter-spacing:-0.03em;}.cls-34{letter-spacing:0.02em;}.cls-35{letter-spacing:-0.01em;}.cls-36{letter-spacing:-0.01em;}.cls-37{letter-spacing:-0.04em;}.cls-38{letter-spacing:-0.02em;}.cls-39{letter-spacing:0.02em;}.cls-40{letter-spacing:0.02em;}.cls-41{letter-spacing:0.02em;}.cls-42{letter-spacing:0em;}.cls-43{letter-spacing:-0.01em;}.cls-44{letter-spacing:0.01em;}.cls-45{letter-spacing:0.03em;}.cls-46{letter-spacing:-0.04em;}.cls-47{letter-spacing:-0.01em;}.cls-48{letter-spacing:-0.01em;}.cls-49{stroke:#000;stroke-miterlimit:10;}.cls-50{letter-spacing:0.01em;}.cls-51{letter-spacing:-0.02em;}.cls-52{letter-spacing:0em;}.cls-53{letter-spacing:0em;}.cls-54{fill:#f4f4f4;}</style></defs><ellipse class="cls-1" cx="138.5" cy="408.5" rx="138" ry="143"/><path d="M138.5,266c36.72,0,71.25,14.82,97.21,41.72S276,370.43,276,408.5s-14.31,73.86-40.29,100.78S175.22,551,138.5,551s-71.25-14.82-97.21-41.72S1,446.57,1,408.5s14.31-73.86,40.29-100.78S101.78,266,138.5,266m0-1C62,265,0,329.25,0,408.5S62,552,138.5,552,277,487.75,277,408.5,215,265,138.5,265Z"/><circle class="cls-1" cx="532" cy="119" r="118.5" transform="translate(71.67 411.04) rotate(-45)"/><path d="M532,1a118,118,0,0,1,83.44,201.44A118,118,0,0,1,448.56,35.56,117.22,117.22,0,0,1,532,1m0-1A119,119,0,1,0,651,119,119,119,0,0,0,532,0Z"/><circle class="cls-1" cx="532" cy="411" r="118.5"/><path d="M532,293a118,118,0,1,1-83.44,34.56A117.22,117.22,0,0,1,532,293m0-1A119,119,0,1,0,651,411,119,119,0,0,0,532,292Z"/><circle class="cls-1" cx="532" cy="694" r="118.5"/><path d="M532,576a118,118,0,1,1-83.44,34.56A117.22,117.22,0,0,1,532,576m0-1A119,119,0,1,0,651,694,119,119,0,0,0,532,575Z"/><text class="cls-2" transform="translate(97.63 308.02)">LMS <tspan class="cls-3" x="23.77" y="0">C</tspan><tspan x="30.6" y="0">ourse </tspan><tspan class="cls-4" x="61.03" y="0">A</tspan><tspan x="68.34" y="0">pp</tspan></text><text class="cls-2" transform="translate(9.87 373.51)">- Built with <tspan class="cls-5" x="56.32" y="0">R</tspan><tspan x="62.82" y="0">ea</tspan><tspan class="cls-6" x="74.62" y="0">c</tspan><tspan x="80.15" y="0">t</tspan><tspan x="0" y="14.4">- </tspan><tspan class="cls-7" x="6.23" y="14.4">U</tspan><tspan x="13.92" y="14.4">ses </tspan><tspan class="cls-5" x="31.98" y="14.4">R</tspan><tspan x="38.48" y="14.4">edux</tspan><tspan x="0" y="28.8">- </tspan><tspan class="cls-8" x="6.23" y="28.8">A</tspan><tspan x="13.54" y="28.8">ll</tspan><tspan class="cls-9" x="19.2" y="28.8">o</tspan><tspan class="cls-10" x="25.7" y="28.8">w</tspan><tspan x="34.46" y="28.8">s users </tspan><tspan class="cls-7" x="70.36" y="28.8">t</tspan><tspan x="74.26" y="28.8">o take </tspan><tspan class="cls-10" x="107.33" y="28.8">c</tspan><tspan x="112.63" y="28.8">ourses</tspan><tspan x="0" y="43.2">- Is our </tspan><tspan class="cls-7" x="36.06" y="43.2">c</tspan><tspan x="41.36" y="43.2">ompa</tspan><tspan class="cls-11" x="70.57" y="43.2">n</tspan><tspan class="cls-12" x="77.08" y="43.2">y homepage</tspan><tspan x="0" y="57.6">- Has an admin panel with </tspan><tspan class="cls-10" x="132.17" y="57.6">t</tspan><tspan x="136.07" y="57.6">ools </tspan><tspan class="cls-13" x="159.37" y="57.6">t</tspan><tspan x="163.27" y="57.6">o help our c</tspan><tspan class="cls-14" x="222.32" y="57.6">r</tspan><tspan x="226.13" y="57.6">e</tspan><tspan class="cls-15" x="232.14" y="57.6">a</tspan><tspan class="cls-10" x="237.87" y="57.6">t</tspan><tspan x="241.77" y="57.6">ors</tspan><tspan x="0" y="72">- Hos</tspan><tspan class="cls-7" x="25.39" y="72">t</tspan><tspan x="29.29" y="72">ed on </tspan><tspan class="cls-16" x="60.41" y="72">A</tspan><tspan x="67.11" y="72">WS </tspan><tspan class="cls-8" x="85.73" y="72">A</tspan><tspan x="93.03" y="72">mplify</tspan></text><text class="cls-2" transform="translate(503.57 47.85)"><tspan class="cls-8">C</tspan><tspan class="cls-17" x="6.92" y="0">r</tspan><tspan x="10.79" y="0">a</tspan><tspan class="cls-18" x="16.57" y="0">f</tspan><tspan x="20.21" y="0">t </tspan><tspan class="cls-19" x="26.72" y="0">S</tspan><tspan class="cls-20" x="32.71" y="0">e</tspan><tspan class="cls-21" x="38.72" y="0">r</tspan><tspan class="cls-22" x="42.95" y="0">v</tspan><tspan x="48.6" y="0">er</tspan></text><text class="cls-2" transform="translate(432.7 97.49)">- <tspan class="cls-3" x="6.23" y="0">C</tspan><tspan x="13.06" y="0">o</tspan><tspan class="cls-15" x="19.64" y="0">n</tspan><tspan class="cls-10" x="26.26" y="0">t</tspan><tspan class="cls-20" x="30.16" y="0">e</tspan><tspan class="cls-23" x="36.17" y="0">n</tspan><tspan x="42.78" y="0">t </tspan><tspan class="cls-24" x="49.29" y="0">M</tspan><tspan x="59.01" y="0">anageme</tspan><tspan class="cls-15" x="105.98" y="0">n</tspan><tspan x="112.59" y="0">t </tspan><tspan class="cls-25" x="119.11" y="0">S</tspan><tspan class="cls-26" x="124.93" y="0">y</tspan><tspan x="130.51" y="0">s</tspan><tspan class="cls-13" x="135.26" y="0">t</tspan><tspan x="139.16" y="0">em</tspan><tspan x="0" y="14.4">- </tspan><tspan class="cls-27" x="6.23" y="14.4">A</tspan><tspan x="13.54" y="14.4">ll</tspan><tspan class="cls-28" x="19.2" y="14.4">o</tspan><tspan class="cls-10" x="25.7" y="14.4">w</tspan><tspan x="34.46" y="14.4">s our c</tspan><tspan class="cls-14" x="66.8" y="14.4">r</tspan><tspan x="70.61" y="14.4">e</tspan><tspan class="cls-15" x="76.62" y="14.4">a</tspan><tspan class="cls-10" x="82.36" y="14.4">t</tspan><tspan x="86.25" y="14.4">ors </tspan><tspan class="cls-13" x="104.06" y="14.4">t</tspan><tspan x="107.96" y="14.4">o input the </tspan><tspan class="cls-10" x="165.71" y="14.4">c</tspan><tspan x="171.01" y="14.4">ourses</tspan><tspan x="0" y="28.8">- Has a G</tspan><tspan class="cls-17" x="43.21" y="28.8">r</tspan><tspan x="47.08" y="28.8">aphql API Endpoi</tspan><tspan class="cls-15" x="133.17" y="28.8">n</tspan><tspan x="139.79" y="28.8">t</tspan><tspan x="0" y="43.2">- H</tspan><tspan class="cls-29" x="14.05" y="43.2">a</tspan><tspan class="cls-22" x="19.74" y="43.2">v</tspan><tspan x="25.39" y="43.2">e a p</tspan><tspan class="cls-14" x="49.1" y="43.2">r</tspan><tspan x="52.91" y="43.2">odu</tspan><tspan class="cls-30" x="72.88" y="43.2">c</tspan><tspan class="cls-20" x="78.41" y="43.2">tion and sta</tspan><tspan class="cls-10" x="137.24" y="43.2">g</tspan><tspan x="143.88" y="43.2">ing</tspan><tspan x="0" y="57.6">- Hos</tspan><tspan class="cls-13" x="25.39" y="57.6">t</tspan><tspan x="29.29" y="57.6">ed on Elastic </tspan><tspan class="cls-5" x="94.38" y="57.6">B</tspan><tspan x="100.93" y="57.6">eanstalk</tspan></text><text class="cls-2" transform="translate(499.58 336.09)"><tspan class="cls-5">U</tspan><tspan class="cls-20" x="7.81" y="0">tils </tspan><tspan class="cls-19" x="24.72" y="0">S</tspan><tspan class="cls-20" x="30.71" y="0">e</tspan><tspan class="cls-21" x="36.72" y="0">r</tspan><tspan class="cls-14" x="40.94" y="0">v</tspan><tspan x="46.59" y="0">er</tspan></text><text class="cls-2" transform="translate(431 371.36)">- <tspan class="cls-24" x="6.23" y="0">M</tspan><tspan x="15.95" y="0">ost of the admin </tspan><tspan class="cls-10" x="100.2" y="0">t</tspan><tspan x="104.1" y="0">ools </tspan><tspan class="cls-10" x="127.4" y="0">c</tspan><tspan x="132.7" y="0">ome </tspan><tspan class="cls-13" x="157.86" y="0">t</tspan><tspan x="161.76" y="0">o he</tspan><tspan class="cls-14" x="183.56" y="0">r</tspan><tspan x="187.36" y="0">e </tspan><tspan class="cls-31" x="0" y="14.4">f</tspan><tspan x="3.35" y="14.4">or fun</tspan><tspan class="cls-32" x="33.18" y="14.4">c</tspan><tspan x="38.71" y="14.4">tions</tspan><tspan x="0" y="28.8">- </tspan><tspan class="cls-33" x="6.23" y="28.8">P</tspan><tspan x="12.3" y="28.8">ac</tspan><tspan class="cls-34" x="23.46" y="28.8">k</tspan><tspan x="29.3" y="28.8">age gene</tspan><tspan class="cls-35" x="75.74" y="28.8">r</tspan><tspan class="cls-15" x="79.61" y="28.8">a</tspan><tspan class="cls-13" x="85.34" y="28.8">t</tspan><tspan x="89.24" y="28.8">or </tspan><tspan class="cls-31" x="102.3" y="28.8">f</tspan><tspan x="105.65" y="28.8">or </tspan><tspan class="cls-10" x="118.7" y="28.8">c</tspan><tspan x="124.01" y="28.8">ourses</tspan><tspan x="0" y="43.2">- </tspan><tspan class="cls-36" x="6.23" y="43.2">C</tspan><tspan x="13.04" y="43.2">us</tspan><tspan class="cls-10" x="24.41" y="43.2">t</tspan><tspan x="28.31" y="43.2">om </tspan><tspan class="cls-24" x="47.45" y="43.2">S</tspan><tspan class="cls-10" x="53.44" y="43.2">c</tspan><tspan x="58.74" y="43.2">o</tspan><tspan class="cls-5" x="65.33" y="43.2">r</tspan><tspan x="69.3" y="43.2">m fa</tspan><tspan class="cls-32" x="91.14" y="43.2">c</tspan><tspan class="cls-10" x="96.67" y="43.2">t</tspan><tspan x="100.57" y="43.2">ors </tspan><tspan class="cls-31" x="118.38" y="43.2">f</tspan><tspan x="121.73" y="43.2">or cus</tspan><tspan class="cls-13" x="151.52" y="43.2">t</tspan><tspan x="155.42" y="43.2">omers</tspan><tspan x="0" y="57.6">- </tspan><tspan class="cls-3" x="6.23" y="57.6">C</tspan><tspan x="13.06" y="57.6">olor palet</tspan><tspan class="cls-10" x="60.96" y="57.6">t</tspan><tspan x="64.86" y="57.6">e gene</tspan><tspan class="cls-17" x="98.81" y="57.6">r</tspan><tspan class="cls-15" x="102.67" y="57.6">a</tspan><tspan class="cls-10" x="108.41" y="57.6">t</tspan><tspan x="112.31" y="57.6">or</tspan><tspan x="0" y="72">-</tspan><tspan class="cls-37" x="3.68" y="72"> </tspan><tspan class="cls-38" x="5.8" y="72">V</tspan><tspan x="12.3" y="72">ideo </tspan><tspan class="cls-10" x="37.02" y="72">t</tspan><tspan x="40.92" y="72">o st</tspan><tspan class="cls-22" x="58.77" y="72">r</tspan><tspan x="62.58" y="72">eaming </tspan><tspan class="cls-10" x="103.1" y="72">c</tspan><tspan x="108.41" y="72">o</tspan><tspan class="cls-31" x="114.99" y="72">n</tspan><tspan class="cls-22" x="121.5" y="72">v</tspan><tspan x="127.15" y="72">e</tspan><tspan class="cls-39" x="133.16" y="72">r</tspan><tspan class="cls-13" x="137.37" y="72">t</tspan><tspan x="141.27" y="72">er</tspan><tspan x="0" y="86.4">- Bug </tspan><tspan class="cls-14" x="28.6" y="86.4">r</tspan><tspan x="32.4" y="86.4">epo</tspan><tspan class="cls-40" x="51.83" y="86.4">r</tspan><tspan x="56.04" y="86.4">t t</tspan><tspan class="cls-17" x="66.53" y="86.4">r</tspan><tspan x="70.39" y="86.4">ac</tspan><tspan class="cls-41" x="81.55" y="86.4">k</tspan><tspan class="cls-42" x="87.38" y="86.4">ing s</tspan><tspan class="cls-13" x="110.85" y="86.4">y</tspan><tspan x="116.43" y="86.4">s</tspan><tspan class="cls-10" x="121.19" y="86.4">t</tspan><tspan x="125.09" y="86.4">em</tspan><tspan x="0" y="100.8">- Hos</tspan><tspan class="cls-10" x="25.39" y="100.8">t</tspan><tspan x="29.29" y="100.8">ed using elastic beanstalk</tspan></text><text class="cls-2" transform="translate(500.11 616.75)"><tspan class="cls-43">L</tspan><tspan x="5.5" y="0">og</tspan><tspan class="cls-10" x="18.79" y="0">g</tspan><tspan class="cls-12" x="25.43" y="0">ing </tspan><tspan class="cls-44" x="44.15" y="0">S</tspan><tspan x="50.14" y="0">e</tspan><tspan class="cls-45" x="56.15" y="0">r</tspan><tspan class="cls-14" x="60.37" y="0">v</tspan><tspan x="66.02" y="0">er</tspan></text><text class="cls-2" transform="translate(433 660.84)">-<tspan class="cls-46" x="3.68" y="0"> </tspan><tspan class="cls-47" x="5.74" y="0">T</tspan><tspan x="11.62" y="0">he outlet </tspan><tspan class="cls-11" x="59.36" y="0">f</tspan><tspan x="62.71" y="0">or all </tspan><tspan class="cls-10" x="89.76" y="0">c</tspan><tspan x="95.06" y="0">ourse t</tspan><tspan class="cls-17" x="129.47" y="0">r</tspan><tspan x="133.33" y="0">ac</tspan><tspan class="cls-41" x="144.49" y="0">k</tspan><tspan x="150.32" y="0">ing</tspan><tspan x="0" y="14.4">- Has </tspan><tspan class="cls-7" x="27.13" y="14.4">c</tspan><tspan x="32.44" y="14.4">ourse limits</tspan><tspan x="0" y="28.8">- </tspan><tspan class="cls-44" x="6.23" y="28.8">S</tspan><tspan x="12.22" y="28.8">ends emails when limits h</tspan><tspan class="cls-25" x="140.78" y="28.8">a</tspan><tspan class="cls-14" x="146.47" y="28.8">v</tspan><tspan x="152.12" y="28.8">e been hit</tspan><tspan x="0" y="43.2">- </tspan><tspan class="cls-3" x="6.23" y="43.2">C</tspan><tspan x="13.06" y="43.2">ourse limits can be assi</tspan><tspan class="cls-7" x="127.05" y="43.2">g</tspan><tspan x="133.69" y="43.2">ned on </tspan><tspan class="cls-10" x="171.47" y="43.2">c</tspan><tspan x="176.77" y="43.2">ours</tspan><tspan class="cls-36" x="198.64" y="43.2">e</tspan><tspan class="cls-12" x="204.51" y="43.2">, </tspan><tspan x="0" y="57.6">gene</tspan><tspan class="cls-48" x="25.39" y="57.6">r</tspan><tspan x="29.26" y="57.6">al or per key basis</tspan><tspan x="0" y="72">- Hos</tspan><tspan class="cls-7" x="25.39" y="72">t</tspan><tspan x="29.29" y="72">ed on elastic beanstalk</tspan></text><rect class="cls-49" x="765.5" y="630.5" width="221" height="124"/><rect class="cls-49" x="764.5" y="354.5" width="230" height="126"/><rect class="cls-49" x="760.5" y="36.5" width="230" height="140"/><text class="cls-2" transform="translate(784.04 676.34)">- RDS <tspan class="cls-50" x="29.14" y="0">M</tspan><tspan class="cls-10" x="38.87" y="0">y</tspan><tspan x="44.45" y="0">sql D</tspan><tspan class="cls-15" x="69.32" y="0">a</tspan><tspan x="75.06" y="0">tabase</tspan><tspan x="0" y="14.4">- </tspan><tspan class="cls-51" x="6.23" y="14.4">P</tspan><tspan class="cls-5" x="12.42" y="14.4">r</tspan><tspan x="16.39" y="14.4">isma made and que</tspan><tspan class="cls-52" x="114.54" y="14.4">rr</tspan><tspan x="122.48" y="14.4">ied</tspan><tspan x="0" y="28.8">- Holds log d</tspan><tspan class="cls-15" x="62.98" y="28.8">a</tspan><tspan x="68.71" y="28.8">ta</tspan><tspan x="0" y="43.2">- Holds </tspan><tspan class="cls-7" x="37.54" y="43.2">c</tspan><tspan x="42.84" y="43.2">ourse limits d</tspan><tspan class="cls-53" x="109.76" y="43.2">a</tspan><tspan x="115.5" y="43.2">ta</tspan><tspan x="0" y="57.6">-Holds </tspan><tspan class="cls-7" x="34.99" y="57.6">c</tspan><tspan x="40.3" y="57.6">ourse limit t</tspan><tspan class="cls-48" x="99.67" y="57.6">r</tspan><tspan x="103.53" y="57.6">ansa</tspan><tspan class="cls-6" x="126.52" y="57.6">c</tspan><tspan x="132.05" y="57.6">tions d</tspan><tspan class="cls-15" x="166.14" y="57.6">a</tspan><tspan x="171.87" y="57.6">ta</tspan><tspan x="0" y="72">- Holds </tspan><tspan class="cls-7" x="37.54" y="72">c</tspan><tspan x="42.84" y="72">ourse limit a</tspan><tspan class="cls-10" x="104.03" y="72">cc</tspan><tspan x="114.64" y="72">ess </tspan><tspan class="cls-10" x="132.69" y="72">c</tspan><tspan x="138" y="72">ode d</tspan><tspan class="cls-15" x="166.68" y="72">a</tspan><tspan x="172.41" y="72">ta</tspan></text><path d="M778.32,404.89v.78h-3v-.78Z"/><path d="M782.14,400.54a11.65,11.65,0,0,1,2-.16,3.28,3.28,0,0,1,2.34.66,2,2,0,0,1,.64,1.53,2.12,2.12,0,0,1-1.53,2.06v0a2,2,0,0,1,1.19,1.63,13.27,13.27,0,0,0,.62,2.22h-1.07a9.25,9.25,0,0,1-.54-1.93c-.25-1.12-.68-1.54-1.62-1.57h-1v3.5h-1Zm1,3.69h1.07c1.12,0,1.82-.62,1.82-1.54s-.75-1.5-1.86-1.51a4.15,4.15,0,0,0-1,.1Z"/><path d="M788.59,400.54a16,16,0,0,1,2.22-.16,4.65,4.65,0,0,1,3.28,1,3.74,3.74,0,0,1,1.14,2.91,4.26,4.26,0,0,1-1.17,3.14,5,5,0,0,1-3.57,1.16,17.16,17.16,0,0,1-1.9-.09Zm1,7.15a6.32,6.32,0,0,0,1.05.06,3.11,3.11,0,0,0,3.45-3.43c0-1.9-1.07-3.12-3.28-3.12a5.82,5.82,0,0,0-1.22.11Z"/><path d="M796.44,407.25a3.68,3.68,0,0,0,1.87.53c1.07,0,1.7-.57,1.7-1.38s-.44-1.19-1.53-1.61c-1.32-.47-2.13-1.15-2.13-2.29a2.33,2.33,0,0,1,2.61-2.2,3.72,3.72,0,0,1,1.79.4l-.29.85a3.24,3.24,0,0,0-1.53-.38c-1.11,0-1.53.66-1.53,1.21,0,.75.49,1.13,1.61,1.56,1.37.53,2.06,1.18,2.06,2.37s-.92,2.33-2.83,2.33a4.13,4.13,0,0,1-2.06-.52Z"/><path d="M811.86,405c-.06-1.13-.13-2.48-.12-3.49h0c-.27.95-.61,1.95-1,3.07l-1.42,3.92h-.79l-1.31-3.85c-.39-1.14-.71-2.18-.94-3.14h0c0,1-.09,2.36-.16,3.57l-.21,3.47h-1l.57-8.08h1.33l1.38,3.91c.33,1,.61,1.88.81,2.72h0c.2-.82.49-1.7.85-2.72l1.44-3.91h1.33l.5,8.08h-1Z"/><path d="M815.13,402.71l1.27,3.43c.13.39.27.84.37,1.19h0c.11-.35.23-.79.38-1.21l1.15-3.41h1.11l-1.58,4.14c-.76,2-1.27,3-2,3.64a2.93,2.93,0,0,1-1.3.68l-.26-.89a2.77,2.77,0,0,0,.92-.51,3.22,3.22,0,0,0,.89-1.18.69.69,0,0,0,.08-.25.91.91,0,0,0-.07-.28L814,402.71Z"/><path d="M820.18,407.44a2.79,2.79,0,0,0,1.39.42c.77,0,1.13-.38,1.13-.86s-.3-.78-1.08-1.07c-1-.37-1.54-.95-1.54-1.64a1.8,1.8,0,0,1,2-1.71,2.9,2.9,0,0,1,1.42.36l-.26.77a2.31,2.31,0,0,0-1.19-.34c-.62,0-1,.36-1,.8s.35.69,1.1,1c1,.38,1.53.89,1.53,1.75,0,1-.79,1.74-2.17,1.74a3.27,3.27,0,0,1-1.63-.4Z"/><path d="M829,407.62h0a2.06,2.06,0,0,1-1.9,1c-1.35,0-2.45-1.17-2.45-2.94,0-2.17,1.4-3.13,2.62-3.13a1.92,1.92,0,0,1,1.79,1h0l0-.88h1c0,.5,0,1,0,1.6v6.58H829Zm0-2.55a1.64,1.64,0,0,0,0-.45,1.54,1.54,0,0,0-1.51-1.2c-1.09,0-1.75.93-1.75,2.23s.55,2.16,1.72,2.16a1.57,1.57,0,0,0,1.51-1.15,1.69,1.69,0,0,0,.08-.5Z"/><path d="M831.83,400h1.06v8.52h-1.06Z"/><path d="M837.24,400.54a15.93,15.93,0,0,1,2.22-.16,4.65,4.65,0,0,1,3.28,1,3.74,3.74,0,0,1,1.14,2.91,4.26,4.26,0,0,1-1.17,3.14,5,5,0,0,1-3.57,1.16,17,17,0,0,1-1.9-.09Zm1,7.15a6.25,6.25,0,0,0,1.05.06,3.11,3.11,0,0,0,3.44-3.43c0-1.9-1.06-3.12-3.27-3.12a5.82,5.82,0,0,0-1.22.11Z"/><path d="M848.41,408.52l-.08-.73h0a2.16,2.16,0,0,1-1.77.86,1.66,1.66,0,0,1-1.78-1.67c0-1.4,1.25-2.17,3.49-2.15v-.12a1.2,1.2,0,0,0-1.32-1.35,2.93,2.93,0,0,0-1.51.43l-.24-.69a3.64,3.64,0,0,1,1.91-.52c1.77,0,2.21,1.21,2.21,2.38v2.17a8.47,8.47,0,0,0,.09,1.39Zm-.15-3c-1.15,0-2.46.18-2.46,1.3a.93.93,0,0,0,1,1,1.45,1.45,0,0,0,1.41-1,1.35,1.35,0,0,0,.06-.34Z"/><path d="M852.21,401.05v1.66h1.51v.81h-1.51v3.13c0,.72.2,1.13.79,1.13a2.13,2.13,0,0,0,.61-.08l0,.8a2.73,2.73,0,0,1-.94.14,1.49,1.49,0,0,1-1.14-.44,2.18,2.18,0,0,1-.41-1.52v-3.16h-.89v-.81h.89v-1.39Z"/><path d="M858.12,408.52l-.08-.73h0a2.17,2.17,0,0,1-1.77.86,1.66,1.66,0,0,1-1.78-1.67c0-1.4,1.25-2.17,3.49-2.15v-.12a1.2,1.2,0,0,0-1.32-1.35,2.93,2.93,0,0,0-1.51.43l-.24-.69a3.64,3.64,0,0,1,1.91-.52c1.77,0,2.2,1.21,2.2,2.38v2.17a8.4,8.4,0,0,0,.1,1.39Zm-.16-3c-1.15,0-2.45.18-2.45,1.3a.93.93,0,0,0,1,1,1.45,1.45,0,0,0,1.41-1,1.33,1.33,0,0,0,.05-.34Z"/><path d="M860.64,408.52c0-.4.05-1,.05-1.5v-7h1v3.65h0a2.15,2.15,0,0,1,2-1.07c1.44,0,2.46,1.2,2.44,3,0,2.08-1.3,3.11-2.6,3.11a2.06,2.06,0,0,1-1.94-1.09h0l-.05,1Zm1.09-2.33a2.3,2.3,0,0,0,0,.39,1.64,1.64,0,0,0,1.59,1.23c1.1,0,1.76-.9,1.76-2.23,0-1.16-.6-2.16-1.73-2.16a1.69,1.69,0,0,0-1.61,1.3,2.34,2.34,0,0,0-.06.43Z"/><path d="M870.73,408.52l-.08-.73h0a2.16,2.16,0,0,1-1.77.86,1.66,1.66,0,0,1-1.78-1.67c0-1.4,1.25-2.17,3.49-2.15v-.12a1.2,1.2,0,0,0-1.32-1.35,2.93,2.93,0,0,0-1.51.43l-.24-.69a3.64,3.64,0,0,1,1.91-.52c1.78,0,2.21,1.21,2.21,2.38v2.17a8.47,8.47,0,0,0,.09,1.39Zm-.15-3c-1.15,0-2.46.18-2.46,1.3a.93.93,0,0,0,1,1,1.45,1.45,0,0,0,1.41-1,1.35,1.35,0,0,0,.06-.34Z"/><path d="M873.16,407.44a2.79,2.79,0,0,0,1.39.42c.77,0,1.13-.38,1.13-.86s-.3-.78-1.08-1.07c-1.05-.37-1.54-.95-1.54-1.64a1.8,1.8,0,0,1,2-1.71,2.9,2.9,0,0,1,1.42.36l-.26.77a2.31,2.31,0,0,0-1.19-.34c-.62,0-1,.36-1,.8s.35.69,1.1,1c1,.38,1.53.89,1.53,1.75,0,1-.79,1.74-2.17,1.74a3.27,3.27,0,0,1-1.63-.4Z"/><path d="M878.64,405.81a1.86,1.86,0,0,0,2,2,3.8,3.8,0,0,0,1.61-.3l.18.76a4.67,4.67,0,0,1-1.93.36,2.69,2.69,0,0,1-2.85-2.93c0-1.75,1-3.13,2.72-3.13a2.47,2.47,0,0,1,2.4,2.74,4.35,4.35,0,0,1,0,.49Zm3.1-.76a1.5,1.5,0,0,0-1.47-1.71,1.74,1.74,0,0,0-1.61,1.71Z"/><path d="M778.32,419.29v.78h-3v-.78Z"/><path d="M782.14,414.93a12.57,12.57,0,0,1,2-.15,3.34,3.34,0,0,1,2.27.67,2.18,2.18,0,0,1,.71,1.69,2.38,2.38,0,0,1-.63,1.73,3.37,3.37,0,0,1-2.47.88,3.61,3.61,0,0,1-.84-.07v3.24h-1Zm1,3.9a3.58,3.58,0,0,0,.87.08c1.26,0,2-.61,2-1.72s-.75-1.59-1.9-1.59a4.21,4.21,0,0,0-1,.09Z"/><path d="M788.3,418.93c0-.69,0-1.27,0-1.81h.92l0,1.13h0a1.75,1.75,0,0,1,1.61-1.27,1.28,1.28,0,0,1,.3,0v1a1.86,1.86,0,0,0-.36,0,1.47,1.47,0,0,0-1.41,1.35,2.57,2.57,0,0,0,0,.5v3.09h-1Z"/><path d="M793.44,415.48a.62.62,0,0,1-.67.65.63.63,0,0,1-.64-.65.65.65,0,0,1,.66-.66A.63.63,0,0,1,793.44,415.48Zm-1.17,7.44v-5.8h1.05v5.8Z"/><path d="M794.93,421.84a2.79,2.79,0,0,0,1.39.42c.77,0,1.13-.38,1.13-.86s-.3-.78-1.08-1.07c-1-.37-1.54-.95-1.54-1.64a1.8,1.8,0,0,1,2-1.71,2.87,2.87,0,0,1,1.42.36l-.26.77a2.31,2.31,0,0,0-1.19-.34c-.62,0-1,.36-1,.8s.35.69,1.11,1c1,.38,1.52.89,1.52,1.75,0,1-.79,1.74-2.17,1.74a3.3,3.3,0,0,1-1.63-.4Z"/><path d="M799.83,418.69c0-.6,0-1.1-.05-1.57h.92l0,.93h0a2,2,0,0,1,1.82-1.07,1.71,1.71,0,0,1,1.64,1.17h0a2.33,2.33,0,0,1,.64-.76,2,2,0,0,1,1.29-.41c.76,0,1.9.51,1.9,2.52v3.42h-1v-3.29c0-1.11-.41-1.78-1.26-1.78a1.35,1.35,0,0,0-1.24,1,1.61,1.61,0,0,0-.09.52v3.59h-1v-3.48c0-.92-.41-1.59-1.21-1.59a1.44,1.44,0,0,0-1.31,1,1.49,1.49,0,0,0-.08.52v3.5h-1Z"/><path d="M813.05,422.92l-.09-.73h0a2.18,2.18,0,0,1-1.78.86,1.65,1.65,0,0,1-1.77-1.67c0-1.4,1.25-2.17,3.49-2.15v-.12a1.2,1.2,0,0,0-1.32-1.35,2.93,2.93,0,0,0-1.51.43l-.24-.69a3.61,3.61,0,0,1,1.91-.52c1.77,0,2.2,1.21,2.2,2.38v2.17a8.4,8.4,0,0,0,.1,1.39Zm-.16-3c-1.15,0-2.46.18-2.46,1.3a.94.94,0,0,0,1,1,1.43,1.43,0,0,0,1.4-1,1,1,0,0,0,.06-.34Z"/><path d="M818.16,418.69c0-.6,0-1.1,0-1.57H819l.05.93h0A2,2,0,0,1,821,417a1.71,1.71,0,0,1,1.64,1.17h0a2.35,2.35,0,0,1,.65-.76,2,2,0,0,1,1.28-.41c.77,0,1.91.51,1.91,2.52v3.42h-1v-3.29c0-1.11-.41-1.78-1.26-1.78a1.36,1.36,0,0,0-1.25,1,1.62,1.62,0,0,0-.08.52v3.59h-1v-3.48c0-.92-.41-1.59-1.22-1.59a1.44,1.44,0,0,0-1.3,1,1.5,1.5,0,0,0-.09.52v3.5h-1Z"/><path d="M831.38,422.92l-.08-.73h0a2.16,2.16,0,0,1-1.77.86,1.66,1.66,0,0,1-1.78-1.67c0-1.4,1.25-2.17,3.5-2.15v-.12a1.21,1.21,0,0,0-1.32-1.35,3,3,0,0,0-1.52.43l-.24-.69A3.64,3.64,0,0,1,830,417c1.78,0,2.21,1.21,2.21,2.38v2.17a8.47,8.47,0,0,0,.09,1.39Zm-.15-3c-1.15,0-2.46.18-2.46,1.3a.94.94,0,0,0,1,1,1.45,1.45,0,0,0,1.4-1,1,1,0,0,0,.06-.34Z"/><path d="M839,414.4v7c0,.52,0,1.1,0,1.5h-.95l-.05-1h0a2.16,2.16,0,0,1-2,1.14c-1.41,0-2.48-1.19-2.48-2.95,0-1.93,1.18-3.12,2.6-3.12a1.94,1.94,0,0,1,1.75.89h0V414.4Zm-1.06,5.08a1.77,1.77,0,0,0,0-.45,1.54,1.54,0,0,0-1.52-1.22c-1.09,0-1.74,1-1.74,2.24s.58,2.15,1.72,2.15a1.58,1.58,0,0,0,1.54-1.26,1.64,1.64,0,0,0,0-.45Z"/><path d="M841.31,420.21a1.85,1.85,0,0,0,2,2,3.8,3.8,0,0,0,1.61-.3l.18.76a4.67,4.67,0,0,1-1.93.36,2.7,2.7,0,0,1-2.86-2.93c0-1.75,1-3.13,2.73-3.13a2.46,2.46,0,0,1,2.39,2.74,4.88,4.88,0,0,1,0,.49Zm3.09-.76a1.49,1.49,0,0,0-1.46-1.71,1.75,1.75,0,0,0-1.62,1.71Z"/><path d="M852.49,422.92l-.08-.73h0a2.17,2.17,0,0,1-1.77.86,1.66,1.66,0,0,1-1.78-1.67c0-1.4,1.25-2.17,3.49-2.15v-.12a1.2,1.2,0,0,0-1.32-1.35,2.93,2.93,0,0,0-1.51.43l-.24-.69a3.64,3.64,0,0,1,1.91-.52c1.77,0,2.21,1.21,2.21,2.38v2.17a8.47,8.47,0,0,0,.09,1.39Zm-.15-3c-1.16,0-2.46.18-2.46,1.3a.93.93,0,0,0,1,1,1.45,1.45,0,0,0,1.41-1,1.35,1.35,0,0,0,.06-.34Z"/><path d="M855.06,418.69c0-.6,0-1.1,0-1.57H856l.06.95h0A2.14,2.14,0,0,1,858,417c.81,0,2,.48,2,2.47v3.47h-1v-3.35c0-.93-.35-1.71-1.35-1.71a1.5,1.5,0,0,0-1.41,1.08,1.45,1.45,0,0,0-.07.49v3.49h-1.06Z"/><path d="M866.74,414.4v7c0,.52,0,1.1,0,1.5h-.94l-.05-1h0a2.13,2.13,0,0,1-2,1.14c-1.41,0-2.49-1.19-2.49-2.95,0-1.93,1.19-3.12,2.61-3.12a2,2,0,0,1,1.75.89h0V414.4Zm-1.06,5.08a1.77,1.77,0,0,0,0-.45,1.54,1.54,0,0,0-1.52-1.22c-1.09,0-1.74,1-1.74,2.24s.58,2.15,1.71,2.15a1.59,1.59,0,0,0,1.55-1.26,1.64,1.64,0,0,0,0-.45Z"/><path d="M875,422h0a2.06,2.06,0,0,1-1.9,1c-1.35,0-2.46-1.17-2.46-2.94,0-2.17,1.41-3.13,2.63-3.13a1.92,1.92,0,0,1,1.79,1h0l0-.87h1c0,.49,0,1,0,1.59v6.58H875Zm0-2.55a1.64,1.64,0,0,0,0-.45,1.54,1.54,0,0,0-1.51-1.2c-1.09,0-1.75.93-1.75,2.23s.55,2.16,1.72,2.16a1.57,1.57,0,0,0,1.51-1.15,1.69,1.69,0,0,0,.08-.5Z"/><path d="M882.65,421.34c0,.6,0,1.12.05,1.58h-.94l-.06-.95h0a2.19,2.19,0,0,1-1.92,1.08c-.92,0-2-.5-2-2.54v-3.39h1.06v3.21c0,1.1.33,1.85,1.29,1.85a1.47,1.47,0,0,0,1.49-1.5v-3.56h1.06Z"/><path d="M885,420.21a1.85,1.85,0,0,0,2,2,3.8,3.8,0,0,0,1.61-.3l.18.76a4.67,4.67,0,0,1-1.93.36,2.7,2.7,0,0,1-2.86-2.93c0-1.75,1-3.13,2.73-3.13a2.46,2.46,0,0,1,2.39,2.74,4.88,4.88,0,0,1,0,.49Zm3.09-.76a1.49,1.49,0,0,0-1.46-1.71,1.75,1.75,0,0,0-1.62,1.71Z"/><path d="M890.41,418.93c0-.69,0-1.27,0-1.81h.92l0,1.13h0A1.75,1.75,0,0,1,893,417a1.36,1.36,0,0,1,.3,0v1a1.94,1.94,0,0,0-.36,0,1.49,1.49,0,0,0-1.42,1.35,3.75,3.75,0,0,0,0,.5v3.09h-1.05Z"/><path d="M894.39,418.93c0-.69,0-1.27,0-1.81h.92l0,1.13h0A1.75,1.75,0,0,1,897,417a1.28,1.28,0,0,1,.3,0v1a1.86,1.86,0,0,0-.36,0,1.47,1.47,0,0,0-1.41,1.35,2.57,2.57,0,0,0-.05.5v3.09h-1Z"/><path d="M899.53,415.48a.62.62,0,0,1-.67.65.63.63,0,0,1-.64-.65.65.65,0,0,1,.66-.66A.63.63,0,0,1,899.53,415.48Zm-1.17,7.44v-5.8h1v5.8Z"/><path d="M901.75,420.21a1.86,1.86,0,0,0,2,2,3.8,3.8,0,0,0,1.61-.3l.18.76a4.67,4.67,0,0,1-1.93.36,2.69,2.69,0,0,1-2.85-2.93c0-1.75,1-3.13,2.72-3.13a2.47,2.47,0,0,1,2.4,2.74,4.35,4.35,0,0,1,0,.49Zm3.1-.76a1.5,1.5,0,0,0-1.47-1.71,1.76,1.76,0,0,0-1.62,1.71Z"/><path d="M912.19,414.4v7c0,.52,0,1.1,0,1.5h-1l0-1h0a2.15,2.15,0,0,1-2,1.14c-1.4,0-2.48-1.19-2.48-2.95,0-1.93,1.18-3.12,2.6-3.12a1.93,1.93,0,0,1,1.75.89h0V414.4Zm-1.06,5.08a2.35,2.35,0,0,0,0-.45,1.56,1.56,0,0,0-1.53-1.22c-1.09,0-1.74,1-1.74,2.24s.58,2.15,1.72,2.15a1.6,1.6,0,0,0,1.55-1.26,2.15,2.15,0,0,0,0-.45Z"/><path d="M778.32,433.69v.78h-3v-.78Z"/><path d="M783.18,429.24v3.38h3.91v-3.38h1.06v8.08h-1.06v-3.79h-3.91v3.79h-1v-8.08Z"/><path d="M795.18,434.37a2.83,2.83,0,0,1-2.89,3.08,2.76,2.76,0,0,1-2.78-3,2.84,2.84,0,0,1,2.88-3.09A2.75,2.75,0,0,1,795.18,434.37Zm-4.6.06c0,1.27.73,2.23,1.76,2.23s1.76-1,1.76-2.25c0-1-.49-2.24-1.74-2.24S790.58,433.33,790.58,434.43Z"/><path d="M796.52,428.8h1.05v8.52h-1.05Z"/><path d="M804.36,428.8v7c0,.52,0,1.1,0,1.5h-.95l-.05-1h0a2.14,2.14,0,0,1-2,1.14c-1.4,0-2.48-1.19-2.48-2.95,0-1.93,1.19-3.12,2.6-3.12a1.93,1.93,0,0,1,1.75.89h0V428.8Zm-1.06,5.08a2.35,2.35,0,0,0,0-.45,1.56,1.56,0,0,0-1.53-1.22c-1.09,0-1.73,1-1.73,2.24s.57,2.15,1.71,2.15a1.59,1.59,0,0,0,1.55-1.26,2.15,2.15,0,0,0,0-.45Z"/><path d="M806,436.24a2.79,2.79,0,0,0,1.39.42c.77,0,1.13-.38,1.13-.86s-.3-.78-1.08-1.07c-1-.37-1.53-1-1.53-1.64a1.79,1.79,0,0,1,2-1.71,2.87,2.87,0,0,1,1.42.36l-.26.77a2.31,2.31,0,0,0-1.19-.34c-.62,0-1,.37-1,.8s.35.69,1.11,1c1,.38,1.52.89,1.52,1.75,0,1-.79,1.74-2.17,1.74a3.3,3.3,0,0,1-1.63-.4Z"/><path d="M813.36,437.32c0-.4,0-1,0-1.5v-7h1v3.65h0a2.15,2.15,0,0,1,2-1.07c1.44,0,2.46,1.2,2.44,3,0,2.07-1.3,3.1-2.6,3.1a2.06,2.06,0,0,1-1.94-1.09h0l-.05,1Zm1.09-2.33a2.3,2.3,0,0,0,0,.39,1.63,1.63,0,0,0,1.58,1.23c1.11,0,1.77-.9,1.77-2.23,0-1.16-.6-2.16-1.73-2.16a1.69,1.69,0,0,0-1.61,1.3,2.34,2.34,0,0,0-.06.43Z"/><path d="M825.1,435.74c0,.6,0,1.12,0,1.58h-.93l-.06-.95h0a2.16,2.16,0,0,1-1.91,1.08c-.92,0-2-.5-2-2.54v-3.39h1.06v3.21c0,1.1.33,1.85,1.29,1.85a1.53,1.53,0,0,0,1.39-1,1.57,1.57,0,0,0,.1-.54v-3.56h1.06Z"/><path d="M831.85,431.52c0,.42-.05.88-.05,1.59v3.37a3.35,3.35,0,0,1-.82,2.65,3.08,3.08,0,0,1-2.11.7,3.73,3.73,0,0,1-1.93-.48l.26-.81a3.25,3.25,0,0,0,1.7.46c1.08,0,1.87-.56,1.87-2v-.64h0a2.1,2.1,0,0,1-1.85,1,2.6,2.6,0,0,1-2.47-2.83,2.79,2.79,0,0,1,2.62-3.09,1.94,1.94,0,0,1,1.81,1h0l0-.87Zm-1.09,2.29a1.44,1.44,0,0,0-.06-.48,1.51,1.51,0,0,0-1.47-1.12c-1,0-1.73.85-1.73,2.2,0,1.13.57,2.08,1.71,2.08a1.55,1.55,0,0,0,1.47-1.08,1.81,1.81,0,0,0,.08-.56Z"/><path d="M836.1,433.33c0-.69,0-1.27-.05-1.81H837l0,1.14h0a1.74,1.74,0,0,1,1.61-1.28,1.36,1.36,0,0,1,.3,0v1a1.32,1.32,0,0,0-.36,0,1.49,1.49,0,0,0-1.42,1.35,3.75,3.75,0,0,0,0,.5v3.09h-1Z"/><path d="M840.49,434.61a1.86,1.86,0,0,0,2,2,3.93,3.93,0,0,0,1.6-.29l.18.75a4.67,4.67,0,0,1-1.93.36,2.69,2.69,0,0,1-2.85-2.93c0-1.75,1-3.13,2.72-3.13a2.47,2.47,0,0,1,2.4,2.74,4.35,4.35,0,0,1,0,.49Zm3.1-.76a1.5,1.5,0,0,0-1.46-1.71,1.74,1.74,0,0,0-1.62,1.71Z"/><path d="M845.92,433.41c0-.74,0-1.34,0-1.89h1l0,1h0a2.27,2.27,0,0,1,2.06-1.13c1.41,0,2.46,1.19,2.46,2.95,0,2.09-1.27,3.12-2.64,3.12a2,2,0,0,1-1.78-.91h0v3.16h-1Zm1,1.55a2.82,2.82,0,0,0,0,.43,1.63,1.63,0,0,0,1.58,1.23c1.12,0,1.77-.91,1.77-2.24,0-1.16-.62-2.16-1.73-2.16a1.7,1.7,0,0,0-1.6,1.31,2,2,0,0,0-.07.43Z"/><path d="M858,434.37a2.83,2.83,0,0,1-2.89,3.08,2.76,2.76,0,0,1-2.78-3,2.84,2.84,0,0,1,2.88-3.09A2.75,2.75,0,0,1,858,434.37Zm-4.61.06c0,1.27.74,2.23,1.77,2.23s1.76-1,1.76-2.25c0-1-.49-2.24-1.74-2.24S853.39,433.33,853.39,434.43Z"/><path d="M859.33,433.33c0-.69,0-1.27,0-1.81h.92l0,1.14h0a1.74,1.74,0,0,1,1.61-1.28,1.28,1.28,0,0,1,.3,0v1a1.28,1.28,0,0,0-.36,0,1.47,1.47,0,0,0-1.41,1.35,2.57,2.57,0,0,0,0,.5v3.09h-1Z"/><path d="M864.82,429.85v1.67h1.51v.8h-1.51v3.13c0,.72.2,1.13.79,1.13a2.13,2.13,0,0,0,.61-.08l0,.8a2.69,2.69,0,0,1-.94.14,1.5,1.5,0,0,1-1.14-.44,2.17,2.17,0,0,1-.4-1.51v-3.17h-.9v-.8h.9v-1.4Z"/><path d="M875.08,428.8v7c0,.52,0,1.1,0,1.5h-.94l0-1h0a2.14,2.14,0,0,1-2,1.14c-1.4,0-2.48-1.19-2.48-2.95,0-1.93,1.19-3.12,2.61-3.12a2,2,0,0,1,1.75.89h0V428.8ZM874,433.88a1.77,1.77,0,0,0,0-.45,1.54,1.54,0,0,0-1.52-1.22c-1.09,0-1.74,1-1.74,2.24s.58,2.15,1.71,2.15a1.59,1.59,0,0,0,1.55-1.26,1.64,1.64,0,0,0,0-.45Z"/><path d="M880,437.32l-.08-.73h0a2.16,2.16,0,0,1-1.77.86,1.66,1.66,0,0,1-1.78-1.66c0-1.41,1.25-2.18,3.49-2.16v-.12a1.2,1.2,0,0,0-1.32-1.35,2.93,2.93,0,0,0-1.51.43l-.24-.69a3.64,3.64,0,0,1,1.91-.52c1.78,0,2.21,1.21,2.21,2.38v2.17a8.47,8.47,0,0,0,.09,1.39Zm-.15-3c-1.15,0-2.46.18-2.46,1.31a.93.93,0,0,0,1,1,1.45,1.45,0,0,0,1.41-1,1.36,1.36,0,0,0,.06-.33Z"/><path d="M883.84,429.85v1.67h1.51v.8h-1.51v3.13c0,.72.2,1.13.79,1.13a2.13,2.13,0,0,0,.61-.08l0,.8a2.73,2.73,0,0,1-.94.14,1.5,1.5,0,0,1-1.14-.44,2.17,2.17,0,0,1-.4-1.51v-3.17h-.9v-.8h.9v-1.4Z"/><path d="M889.75,437.32l-.08-.73h0a2.17,2.17,0,0,1-1.77.86,1.66,1.66,0,0,1-1.78-1.66c0-1.41,1.25-2.18,3.49-2.16v-.12a1.2,1.2,0,0,0-1.32-1.35,2.93,2.93,0,0,0-1.51.43l-.24-.69a3.64,3.64,0,0,1,1.91-.52c1.77,0,2.21,1.21,2.21,2.38v2.17a8.47,8.47,0,0,0,.09,1.39Zm-.15-3c-1.16,0-2.46.18-2.46,1.31a.93.93,0,0,0,1,1,1.45,1.45,0,0,0,1.41-1,1.36,1.36,0,0,0,.06-.33Z"/><polygon class="cls-54" points="278.62 320.62 393.51 205.73 401.69 213.91 408.5 188.5 383.09 195.31 391.27 203.49 276.38 318.38 278.62 320.62"/><polygon class="cls-54" points="657.51 108.09 731.96 107.39 732.06 118.96 754.72 105.59 731.82 92.65 731.92 104.22 657.49 104.91 657.51 108.09"/><polygon class="cls-54" points="652.07 695.93 726.51 695.24 726.62 706.8 749.28 693.44 726.38 680.5 726.48 692.06 652.04 692.76 652.07 695.93"/><polygon class="cls-54" points="659.06 419.48 733.5 419.48 733.5 431.05 756.28 417.89 733.5 404.74 733.5 416.31 659.06 416.31 659.06 419.48"/><polygon class="cls-54" points="292.05 410.24 366.49 410.24 366.49 421.8 389.28 408.65 366.49 395.5 366.49 407.06 292.05 407.06 292.05 410.24"/><polygon class="cls-54" points="245.66 517.84 398.36 613.73 392.21 623.52 418.5 624.5 406.2 601.24 400.05 611.04 247.34 515.16 245.66 517.84"/><polygon class="cls-54" points="398.39 142.37 262.66 275.42 254.56 267.16 247.5 292.5 272.98 285.94 264.88 277.68 400.61 144.63 398.39 142.37"/><polygon class="cls-54" points="389.28 382.06 314.83 382.06 314.83 370.5 292.05 383.65 314.83 396.8 314.83 385.24 389.28 385.24 389.28 382.06"/><polygon class="cls-54" points="417.37 588.18 289.39 503.73 295.76 494.07 269.5 492.5 281.27 516.03 287.64 506.37 415.63 590.83 417.37 588.18"/><text class="cls-2" transform="translate(838.5 57.5)"><tspan class="cls-8">C</tspan><tspan class="cls-17" x="6.92" y="0">r</tspan><tspan x="10.79" y="0">a</tspan><tspan class="cls-18" x="16.57" y="0">f</tspan><tspan x="20.21" y="0">t D</tspan><tspan class="cls-15" x="34.71" y="0">a</tspan><tspan x="40.45" y="0">tabase</tspan></text><text class="cls-2" transform="translate(770 93.14)">- RDS <tspan class="cls-50" x="29.14" y="0">M</tspan><tspan class="cls-10" x="38.87" y="0">y</tspan><tspan x="44.45" y="0">sql D</tspan><tspan class="cls-15" x="69.32" y="0">a</tspan><tspan x="75.06" y="0">tabse</tspan><tspan x="0" y="14.4">- </tspan><tspan class="cls-24" x="6.23" y="14.4">M</tspan><tspan x="15.95" y="14.4">anaged </tspan><tspan class="cls-47" x="56.21" y="14.4">b</tspan><tspan class="cls-42" x="62.95" y="14.4">y c</tspan><tspan class="cls-17" x="76.52" y="14.4">r</tspan><tspan x="80.39" y="14.4">a</tspan><tspan class="cls-18" x="86.17" y="14.4">f</tspan><tspan x="89.81" y="14.4">t</tspan></text><text class="cls-2" transform="translate(837.48 376.17)"><tspan class="cls-5">U</tspan><tspan class="cls-20" x="7.81" y="0">tils D</tspan><tspan class="cls-15" x="32.71" y="0">a</tspan><tspan x="38.45" y="0">tabase</tspan></text><text class="cls-2" transform="translate(828.48 652.17)"><tspan class="cls-43">L</tspan><tspan x="5.5" y="0">og</tspan><tspan class="cls-10" x="18.79" y="0">g</tspan><tspan x="25.43" y="0">ing D</tspan><tspan class="cls-15" x="52.14" y="0">a</tspan><tspan x="57.88" y="0">tabase</tspan></text></svg>